<!--?xml version="1.0" standalone="no"?-->              <svg id="sw-js-blob-svg" viewBox="0 0 100 100" xmlns="http://www.w3.org/2000/svg">                    <defs>                         <linearGradient id="sw-gradient" x1="0" x2="1" y1="1" y2="0">                            <stop id="stop1" stop-color="rgba(53.676, 20.244, 117.326, 1)" offset="0%"></stop>                            <stop id="stop2" stop-color="rgba(110, 121, 235, 1)" offset="100%"></stop>                        </linearGradient>                    </defs>                <path fill="url(#sw-gradient)" d="M18.1,-17.4C25.8,-15.1,36.1,-11.6,35.7,-7.3C35.3,-2.9,24.2,2.3,19,10.5C13.7,18.7,14.3,29.8,10.7,32.2C7.2,34.7,-0.5,28.5,-8.6,25C-16.7,21.4,-25.2,20.4,-26.1,16.3C-27,12.2,-20.2,4.9,-16.2,-0.2C-12.1,-5.3,-10.7,-8.2,-8.5,-11.5C-6.2,-14.8,-3.1,-18.4,1,-19.6C5.2,-20.8,10.4,-19.7,18.1,-17.4Z" width="100%" height="100%" transform="translate(50 50)" stroke-width="0" style="transition: all 0.3s ease 0s;"></path>              </svg>